#!OML:ASF H:\Pregnant\Project 1\Capture day 1\Session 1\femalepreg.ASF
:FULLY-SPECIFIED
:DEGREES
733
root -5.20709 15.9054 -24.9483 199.724 -45.7829 -182.704
lowerback -14.666 2.04732 1.71088
upperback -5.16447 2.12555 -2.0015
thorax 2.90005 0.853295 -2.71356
lowerneck -16.494 15.4873 17.1192
upperneck 27.1435 20.7949 -12.4589
head 15.5723 9.01555 -3.6884
rclavicle 5.7236e-015 6.65929e-015
rhumerus -11.5862 17.4339 -72.1024
rradius 55.4253
rwrist -33.3432
rhand -26.277 -47.1494
rfingers 7.12502
rthumb 0.2782 -77.1289
lclavicle 5.7236e-015 6.65929e-015
lhumerus -9.61103 -42.5834 68.7586
lradius 55.992
lwrist 64.3009
lhand -35.7597 22.7925
lfingers 7.12502
lthumb -8.87791 52.5857
rfemur -50.1001 28.8037 -10.9311
rtibia 39.1634
rfoot -16.0318 19.4705
rtoes -9.40429
lfemur -36.5824 -26.715 -10.0025
ltibia 33.8308
lfoot -17.8452 -12.5588
ltoes -26.8268
734
root -5.15599 15.8958 -25.0458 199.625 -47.1394 -182.667
lowerback -14.6759 2.149 1.99351
upperback -5.19722 2.22632 -2.08078
thorax 2.8905 0.902397 -2.93976
lowerneck -15.8585 15.7793 17.559
upperneck 26.7275 21.2243 -12.6183
head 15.4115 9.27095 -3.73007
rclavicle 2.61021e-014 1.13307e-014
rhumerus -11.8221 17.1442 -72.2551
rradius 55.2762
rwrist -33.2009
rhand -26.2535 -47.1196
rfingers 7.12502
rthumb 0.300938 -77.0991
lclavicle 2.61021e-014 1.13307e-014
lhumerus -9.49493 -42.926 68.6803
lradius 55.893
lwrist 64.3201
lhand -35.807 22.7827
lfingers 7.12502
lthumb -8.92352 52.574
rfemur -48.8287 28.1025 -9.53684
rtibia 39.0777
rfoot -17.1849 18.7852
rtoes -9.59053
lfemur -36.8262 -27.2201 -9.29982
ltibia 33.954
lfoot -18.087 -12.9182
ltoes -27.061
735
root -5.10358 15.8893 -25.1432 199.52 -48.4913 -182.605
lowerback -14.7019 2.25441 2.27165
upperback -5.22649 2.33238 -2.15832
thorax 2.89441 0.954302 -3.16039
lowerneck -15.2146 16.0673 18.0321
upperneck 26.302 21.6517 -12.8027
head 15.2581 9.52651 -3.78742
rclavicle -4.81036e-014 -8.15017e-015
rhumerus -12.0469 16.848 -72.41
rradius 55.13
rwrist -33.0831
rhand -26.2506 -47.0726
rfingers 7.12502
rthumb 0.303671 -77.0521
lclavicle -4.81036e-014 -8.15017e-015
lhumerus -9.35189 -43.2692 68.5674
lradius 55.8112
lwrist 64.3381
lhand -35.8774 22.8018
lfingers 7.12502
lthumb -8.99155 52.5902
rfemur -47.5768 27.4013 -8.13001
rtibia 38.9371
rfoot -18.3764 17.8598
rtoes -10.3369
lfemur -37.0615 -27.6983 -8.56798
ltibia 34.0004
lfoot -18.2967 -13.2718
ltoes -27.2875
736
root -5.0501 15.8861 -25.2405 199.413 -49.8243 -182.537
lowerback -14.7366 2.36566 2.5307
upperback -5.24635 2.44927 -2.23358
thorax 2.91393 1.01231 -3.36562
lowerneck -14.5812 16.351 18.521
upperneck 25.8747 22.0775 -13.0028
head 15.1159 9.78049 -3.85277
rclavicle 3.487e-014 -1.49089e-015
rhumerus -12.2547 16.5343 -72.5579
rradius 54.9799
rwrist -32.9726
rhand -26.2739 -46.9821
rfingers 7.12502
rthumb 0.281161 -76.9616
lclavicle 3.487e-014 -1.49089e-015
lhumerus -9.18782 -43.6119 68.4222
lradius 55.7632
lwrist 64.3606
lhand -35.9615 22.8401
lfingers 7.12502
lthumb -9.07267 52.625
rfemur -46.3695 26.7591 -6.76378
rtibia 38.7599
rfoot -19.5849 16.6601
rtoes -11.8261
lfemur -37.2703 -28.1586 -7.82693
ltibia 33.9602
lfoot -18.4592 -13.6142
ltoes -27.5013
737
root -4.99522 15.8865 -25.3374 199.312 -51.1368 -182.46
lowerback -14.7852 2.47874 2.76715
upperback -5.25755 2.57156 -2.3024
thorax 2.9505 1.07378 -3.54975
lowerneck -13.9581 16.6308 19.026
upperneck 25.4385 22.5043 -13.2276
head 14.9838 10.0331 -3.92859
rclavicle 7.45216e-014 2.80286e-014
rhumerus -12.4331 16.1958 -72.7005
rradius 54.8153
rwrist -32.8323
rhand -26.2934 -46.8549
rfingers 7.12502
rthumb 0.262369 -76.8345
lclavicle 7.45216e-014 2.80286e-014
lhumerus -9.02009 -43.9553 68.2216
lradius 55.7844
lwrist 64.4213
lhand -36.0631 22.8707
lfingers 7.12502
lthumb -9.17072 52.6513
rfemur -45.2584 26.2529 -5.49672
rtibia 38.5779
rfoot -20.7485 15.1374
rtoes -13.946
lfemur -37.4659 -28.5977 -7.06768
ltibia 33.8316
lfoot -18.5665 -13.9555
ltoes -27.7045
738
root -4.93889 15.8905 -25.4344 199.21 -52.4177 -182.375
lowerback -14.8391 2.5887 2.96687
upperback -5.25457 2.69504 -2.35088
thorax 3.00352 1.13722 -3.69085
lowerneck -13.378 16.9281 19.4923
upperneck 25.0267 22.9631 -13.4344
head 14.874 10.2943 -3.98017
rclavicle -7.65665e-014 6.36111e-015
rhumerus -12.554 15.8648 -72.7968
rradius 54.6382
rwrist -32.6906
rhand -26.2873 -46.7038
rfingers 7.12502
rthumb 0.268245 -76.6834
lclavicle -7.65665e-014 6.36111e-015
lhumerus -8.84427 -44.258 67.9952
lradius 55.8494
lwrist 64.5001
lhand -36.1605 22.8985
lfingers 7.12502
lthumb -9.26472 52.6749
rfemur -44.2808 25.9672 -4.37296
rtibia 38.433
rfoot -21.7182 13.3688
rtoes -16.0974
lfemur -37.6366 -29.0128 -6.30037
ltibia 33.6177
lfoot -18.6148 -14.2812
ltoes -27.9212
739
root -4.88086 15.8976 -25.5312 199.114 -53.6686 -182.285
lowerback -14.8955 2.69312 3.13016
upperback -5.23829 2.81642 -2.37991
thorax 3.07006 1.2009 -3.79053
lowerneck -12.8749 17.2307 19.8714
upperneck 24.6393 23.4352 -13.6081
head 14.7792 10.5519 -3.99785
rclavicle 3.72915e-015 2.50469e-014
rhumerus -12.6204 15.533 -72.8546
rradius 54.4585
rwrist -32.5542
rhand -26.2503 -46.5282
rfingers 7.12502
rthumb 0.303997 -76.5077
lclavicle 3.72915e-015 2.50469e-014
lhumerus -8.66141 -44.5018 67.7559
lradius 55.9472
lwrist 64.5839
lhand -36.2732 22.976
lfingers 7.12502
lthumb -9.37339 52.7476
rfemur -43.4786 25.9506 -3.42416
rtibia 38.3693
rfoot -22.4006 11.4891
rtoes -17.7176
lfemur -37.801 -29.3992 -5.52588
ltibia 33.3358
lfoot -18.605 -14.5888
ltoes -28.1951
740
root -4.82089 15.9071 -25.6282 199.015 -54.8844 -182.171
lowerback -14.9512 2.79603 3.26898
upperback -5.21402 2.9391 -2.39344
thorax 3.14353 1.26603 -3.85925
lowerneck -12.4607 17.54 20.1579
upperneck 24.309 23.912 -13.7148
head 14.7061 10.8039 -3.96969
rclavicle -6.59008e-014 1.13307e-014
rhumerus -12.6612 15.1739 -72.9171
rradius 54.2793
rwrist -32.3731
rhand -26.1935 -46.2799
rfingers 7.12502
rthumb 0.358846 -76.2593
lclavicle -6.59008e-014 1.13307e-014
lhumerus -8.45043 -44.6626 67.5443
lradius 56.0043
lwrist 64.629
lhand -36.3991 23.0783
lfingers 7.12502
lthumb -9.49491 52.8444
rfemur -42.8776 26.2179 -2.63687
rtibia 38.4169
rfoot -22.785 9.56116
rtoes -18.6539
lfemur -37.9777 -29.7472 -4.73556
ltibia 33.0155
lfoot -18.5453 -14.8608
ltoes -28.6032
741
root -4.75864 15.9183 -25.7253 198.91 -56.0701 -182.012
lowerback -15.0065 2.90005 3.40072
upperback -5.19411 3.06308 -2.3959
thorax 3.21203 1.3316 -3.91175
lowerneck -12.0951 17.8447 20.3933
upperneck 23.9997 24.3811 -13.7977
head 14.6407 11.0474 -3.92414
rclavicle -6.57428e-014 -7.15625e-015
rhumerus -12.7024 14.7651 -73.0072
rradius 54.122
rwrist -32.1524
rhand -26.1 -46.0016
rfingers 7.12502
rthumb 0.449209 -75.9809
lclavicle -6.57428e-014 -7.15625e-015
lhumerus -8.24818 -44.7587 67.3502
lradius 56.0569
lwrist 64.6558
lhand -36.5812 23.2129
lfingers 7.12502
lthumb -9.6706 52.9709
rfemur -42.4939 26.7469 -1.99871
rtibia 38.5859
rfoot -22.8925 7.68888
rtoes -18.5691
lfemur -38.2054 -30.0385 -3.91321
ltibia 32.6944
lfoot -18.4581 -15.0881
ltoes -29.1571
742
root -4.69474 15.9295 -25.8216 198.813 -57.2198 -181.816
lowerback -15.0607 3.02434 3.54566
upperback -5.18521 3.21108 -2.40684
thorax 3.27227 1.40827 -3.97617
lowerneck -11.8175 18.1244 20.5474
upperneck 23.7318 24.8003 -13.8155
head 14.578 11.264 -3.85065
rclavicle -7.35488e-014 9.93923e-015
rhumerus -12.7672 14.2675 -73.1274
rradius 53.9901
rwrist -31.9013
rhand -25.9864 -45.6806
rfingers 7.12502
rthumb 0.558913 -75.6597
lclavicle -7.35488e-014 9.93923e-015
lhumerus -8.04002 -44.8214 67.1856
lradius 56.0842
lwrist 64.6258
lhand -36.7737 23.3478
lfingers 7.12502
lthumb -9.85636 53.0971
rfemur -42.2997 27.4031 -1.43311
rtibia 38.8568
rfoot -22.8638 5.77141
rtoes -18.2863
lfemur -38.5083 -30.2759 -3.06782
ltibia 32.4087
lfoot -18.3525 -15.2581
ltoes -29.8686
